<mxfile host="65bd71144e">
    <diagram id="NNhYs4AKmxQKe7K4dmlO" name="Page-1">
        <mxGraphModel dx="1022" dy="843" grid="1" gridSize="10" guides="1" tooltips="1" connect="1" arrows="1" fold="1" page="1" pageScale="1" pageWidth="827" pageHeight="1169" math="0" shadow="0">
            <root>
                <mxCell id="0"/>
                <mxCell id="1" parent="0"/>
                <mxCell id="7" style="edgeStyle=none;html=1;entryX=0;entryY=0.57;entryDx=0;entryDy=0;entryPerimeter=0;endArrow=none;endFill=0;" edge="1" parent="1" source="2" target="6">
                    <mxGeometry relative="1" as="geometry"/>
                </mxCell>
                <mxCell id="2" value="" style="pointerEvents=1;verticalLabelPosition=bottom;shadow=0;dashed=0;align=center;html=1;verticalAlign=top;shape=mxgraph.electrical.resistors.resistor_2;" vertex="1" parent="1">
                    <mxGeometry x="290" y="300" width="90" height="20" as="geometry"/>
                </mxCell>
                <mxCell id="4" style="edgeStyle=none;html=1;endArrow=none;endFill=0;" edge="1" parent="1" source="3" target="2">
                    <mxGeometry relative="1" as="geometry"/>
                </mxCell>
                <mxCell id="9" style="edgeStyle=none;html=1;endArrow=none;endFill=0;entryX=1;entryY=0.57;entryDx=0;entryDy=0;entryPerimeter=0;rounded=0;" edge="1" parent="1" source="3" target="6">
                    <mxGeometry relative="1" as="geometry">
                        <mxPoint x="180" y="400" as="targetPoint"/>
                        <Array as="points">
                            <mxPoint x="120" y="310"/>
                            <mxPoint x="120" y="400"/>
                            <mxPoint x="514" y="400"/>
                        </Array>
                    </mxGeometry>
                </mxCell>
                <mxCell id="3" value="" style="pointerEvents=1;verticalLabelPosition=bottom;shadow=0;dashed=0;align=center;html=1;verticalAlign=top;shape=mxgraph.electrical.miscellaneous.batteryStack;" vertex="1" parent="1">
                    <mxGeometry x="150" y="280" width="100" height="60" as="geometry"/>
                </mxCell>
                <mxCell id="6" value="" style="verticalLabelPosition=bottom;shadow=0;dashed=0;align=center;html=1;verticalAlign=top;shape=mxgraph.electrical.opto_electronics.led_2;pointerEvents=1;" vertex="1" parent="1">
                    <mxGeometry x="414" y="270" width="100" height="70" as="geometry"/>
                </mxCell>
                <mxCell id="10" value="5 V" style="text;html=1;resizable=0;autosize=1;align=center;verticalAlign=middle;points=[];fillColor=none;strokeColor=none;rounded=0;" vertex="1" parent="1">
                    <mxGeometry x="185" y="260" width="30" height="20" as="geometry"/>
                </mxCell>
                <mxCell id="12" value="&lt;h2 class=&quot; d-flex flex-wrap flex-items-center wb-break-word f3 text-normal&quot; style=&quot;box-sizing: border-box ; margin-top: 0px ; margin-bottom: 0px ; font-size: 20px ; font-weight: 400 ; align-items: center ; word-break: break-word ; overflow-wrap: break-word ; display: flex ; color: rgb(36 , 41 , 47) ; font-style: normal ; letter-spacing: normal ; text-indent: 0px ; text-transform: none ; word-spacing: 0px ; background-color: rgb(246 , 248 , 250)&quot;&gt;&lt;strong itemprop=&quot;name&quot; class=&quot;mr-2 flex-self-stretch&quot; style=&quot;box-sizing: border-box ; font-weight: 600 ; margin-right: 8px&quot;&gt;&lt;/strong&gt;&lt;/h2&gt;&lt;font style=&quot;font-size: 18px&quot;&gt;Matthew Meech - TEJ3M - Unit #4-03&lt;/font&gt;" style="text;whiteSpace=wrap;html=1;" vertex="1" parent="1">
                    <mxGeometry x="180" y="210" width="305" height="40" as="geometry"/>
                </mxCell>
                <mxCell id="13" value="LED 1" style="text;html=1;resizable=0;autosize=1;align=center;verticalAlign=middle;points=[];fillColor=none;strokeColor=none;rounded=0;" vertex="1" parent="1">
                    <mxGeometry x="439" y="250" width="50" height="20" as="geometry"/>
                </mxCell>
                <mxCell id="14" value="220&amp;nbsp;&lt;span style=&quot;color: rgb(32 , 33 , 36) ; font-family: &amp;#34;arial&amp;#34; , sans-serif ; text-align: left ; background-color: rgb(255 , 255 , 255)&quot;&gt;&lt;font style=&quot;font-size: 12px&quot;&gt;Î©&lt;/font&gt;&lt;/span&gt;" style="text;html=1;resizable=0;autosize=1;align=center;verticalAlign=middle;points=[];fillColor=none;strokeColor=none;rounded=0;" vertex="1" parent="1">
                    <mxGeometry x="310" y="270" width="50" height="20" as="geometry"/>
                </mxCell>
                <mxCell id="15" value="&lt;b&gt;&lt;font style=&quot;font-size: 24px&quot;&gt;+&lt;/font&gt;&lt;/b&gt;" style="text;html=1;resizable=0;autosize=1;align=center;verticalAlign=middle;points=[];fillColor=none;strokeColor=none;rounded=0;fontSize=18;" vertex="1" parent="1">
                    <mxGeometry x="230" y="280" width="30" height="30" as="geometry"/>
                </mxCell>
                <mxCell id="16" value="&lt;div style=&quot;text-align: center&quot;&gt;&lt;span&gt;&lt;font face=&quot;helvetica&quot;&gt;&lt;b&gt;-&lt;/b&gt;&lt;/font&gt;&lt;/span&gt;&lt;/div&gt;" style="text;whiteSpace=wrap;html=1;fontSize=24;" vertex="1" parent="1">
                    <mxGeometry x="140" y="270" width="40" height="50" as="geometry"/>
                </mxCell>
            </root>
        </mxGraphModel>
    </diagram>
</mxfile>